<svg xmlns="http://www.w3.org/2000/svg" viewBox="0 0 60 36">
  <rect width="60" height="18" fill="#0038a8"/>
  <rect y="18" width="60" height="18" fill="#ce1126"/>
  <polygon points="0,0 31.18,18 0,36" fill="#fff"/>
  <g fill="#fcd116">
    <!-- Sun centre + 8 rays (simplified) -->
    <circle cx="12" cy="18" r="3.4"/>
    <polygon points="12,12 12.6,16.3 11.4,16.3"/>
    <polygon points="12,24 12.6,19.7 11.4,19.7"/>
    <polygon points="6,18 10.3,17.4 10.3,18.6"/>
    <polygon points="18,18 13.7,17.4 13.7,18.6"/>
    <polygon points="7.76,13.76 11.0,16.4 10.16,17.24"/>
    <polygon points="16.24,22.24 13.0,19.6 13.84,18.76"/>
    <polygon points="7.76,22.24 10.16,18.76 11.0,19.6"/>
    <polygon points="16.24,13.76 13.84,17.24 13.0,16.4"/>
    <!-- Three stars at the triangle corners -->
    <polygon points="3.5,4 4.1,5.6 5.8,5.6 4.4,6.6 5,8.2 3.5,7.2 2,8.2 2.6,6.6 1.2,5.6 2.9,5.6"/>
    <polygon points="3.5,32 4.1,30.4 5.8,30.4 4.4,29.4 5,27.8 3.5,28.8 2,27.8 2.6,29.4 1.2,30.4 2.9,30.4"/>
    <polygon points="28.18,18 28.78,19.6 30.48,19.6 29.08,20.6 29.68,22.2 28.18,21.2 26.68,22.2 27.28,20.6 25.88,19.6 27.58,19.6"/>
  </g>
</svg>
